<?xml version="1.0" encoding="utf-8"?>
<!-- Generator: Adobe Illustrator 16.0.3, SVG Export Plug-In . SVG Version: 6.00 Build 0)  -->
<!DOCTYPE svg PUBLIC "-//W3C//DTD SVG 1.1//EN" "http://www.w3.org/Graphics/SVG/1.1/DTD/svg11.dtd">
<svg version="1.1" id="Admin" xmlns="http://www.w3.org/2000/svg" xmlns:xlink="http://www.w3.org/1999/xlink" x="0px" y="0px"
	 width="179.896px" height="59.106px" viewBox="0 0 179.896 59.106" enable-background="new 0 0 179.896 59.106"
	 xml:space="preserve">
<g>
	<path d="M4.72,22.426c1.227,0,2.2,0.514,2.92,1.54l-1.14,0.98c-0.333-0.36-0.637-0.617-0.91-0.771s-0.583-0.229-0.93-0.229
		c-0.347,0-0.637,0.109-0.87,0.33c-0.233,0.22-0.35,0.536-0.35,0.949c0,0.308,0.117,0.558,0.35,0.75
		c0.233,0.194,0.523,0.374,0.87,0.54c0.346,0.167,0.72,0.33,1.12,0.49c0.4,0.16,0.773,0.351,1.12,0.57s0.637,0.493,0.87,0.82
		c0.233,0.326,0.35,0.736,0.35,1.229c0,1.014-0.3,1.8-0.9,2.36c-0.6,0.56-1.414,0.84-2.44,0.84c-0.52,0-0.983-0.077-1.39-0.23
		c-0.407-0.152-0.764-0.359-1.07-0.62c-0.307-0.26-0.567-0.55-0.78-0.869c-0.213-0.32-0.387-0.653-0.52-1l1.42-0.78
		c0.227,0.547,0.533,1.014,0.92,1.399c0.387,0.388,0.86,0.58,1.42,0.58c0.507,0,0.903-0.13,1.19-0.39
		c0.286-0.26,0.43-0.656,0.43-1.19c0-0.306-0.113-0.556-0.34-0.75c-0.227-0.192-0.514-0.366-0.86-0.52
		c-0.347-0.153-0.72-0.307-1.12-0.46s-0.773-0.347-1.12-0.58s-0.633-0.523-0.86-0.87c-0.227-0.347-0.34-0.793-0.34-1.34
		c0-0.387,0.07-0.75,0.21-1.09c0.14-0.34,0.336-0.634,0.59-0.88c0.253-0.247,0.563-0.443,0.93-0.59
		C3.856,22.499,4.267,22.426,4.72,22.426z"/>
	<path d="M24.7,32.666h-1.68v-6.74c0-1.319-0.54-1.979-1.62-1.979c-0.36,0-0.704,0.1-1.03,0.3s-0.613,0.497-0.86,0.89
		c-0.247,0.394-0.44,0.874-0.58,1.44s-0.21,1.217-0.21,1.95v4.14h-1.68v-6.74c0-1.319-0.54-1.979-1.62-1.979
		c-0.36,0-0.704,0.1-1.03,0.3s-0.613,0.497-0.86,0.89c-0.247,0.394-0.44,0.874-0.58,1.44s-0.21,1.217-0.21,1.95v4.14h-1.68v-10.08
		h1.68v1.86c0.32-0.641,0.747-1.137,1.28-1.49s1.153-0.53,1.86-0.53c0.707,0,1.293,0.184,1.76,0.55
		c0.467,0.367,0.78,0.884,0.94,1.551c0.347-0.667,0.8-1.184,1.36-1.551c0.56-0.366,1.2-0.55,1.92-0.55c0.92,0,1.623,0.28,2.11,0.84
		c0.486,0.561,0.73,1.327,0.73,2.301V32.666z"/>
	<path d="M35.459,32.666H34.14l-0.28-1.42c-0.32,0.467-0.737,0.847-1.25,1.14s-1.15,0.44-1.91,0.44c-0.427,0-0.827-0.057-1.2-0.17
		c-0.374-0.113-0.704-0.297-0.99-0.55c-0.287-0.254-0.513-0.57-0.68-0.95c-0.167-0.38-0.25-0.844-0.25-1.391
		c0-0.533,0.106-1.006,0.32-1.42c0.213-0.413,0.52-0.76,0.92-1.04c0.4-0.279,0.88-0.489,1.44-0.63c0.56-0.14,1.187-0.21,1.88-0.21
		h1.64v-0.439c0-0.773-0.213-1.313-0.64-1.62c-0.427-0.307-0.947-0.46-1.56-0.46c-0.52,0-0.974,0.137-1.36,0.41
		s-0.633,0.663-0.74,1.17L28,25.186c0.146-0.853,0.54-1.526,1.18-2.02c0.64-0.493,1.44-0.74,2.4-0.74c0.56,0,1.077,0.073,1.55,0.221
		c0.473,0.146,0.883,0.373,1.23,0.68c0.346,0.307,0.617,0.7,0.811,1.18c0.193,0.48,0.289,1.054,0.289,1.72V32.666z M29.3,29.766
		c0,0.48,0.143,0.857,0.43,1.131c0.287,0.273,0.697,0.409,1.23,0.409c0.32,0,0.65-0.053,0.99-0.159
		c0.34-0.107,0.643-0.28,0.91-0.521s0.487-0.557,0.66-0.95c0.173-0.393,0.26-0.876,0.26-1.45v-0.239h-1.8
		c-0.867,0-1.53,0.153-1.99,0.46C29.53,28.753,29.3,29.193,29.3,29.766z"/>
	<path d="M44.339,24.226c-0.373-0.187-0.767-0.279-1.18-0.279c-0.347,0-0.687,0.1-1.02,0.3c-0.334,0.2-0.634,0.507-0.9,0.92
		s-0.483,0.927-0.65,1.54c-0.166,0.613-0.25,1.327-0.25,2.14v3.82h-1.68v-10.08h1.68v1.72c0.147-0.279,0.334-0.536,0.561-0.77
		s0.47-0.43,0.729-0.59c0.261-0.16,0.533-0.287,0.82-0.38c0.287-0.094,0.57-0.141,0.851-0.141c0.279,0,0.543,0.03,0.789,0.09
		c0.247,0.061,0.443,0.131,0.591,0.21L44.339,24.226z"/>
	<path d="M45.58,22.586h1.74v-3.02L49,18.506v4.08h2.64v1.521H49v5.54c0,0.547,0.116,0.96,0.35,1.239
		c0.233,0.28,0.563,0.42,0.99,0.42c0.227,0,0.427-0.022,0.601-0.069c0.173-0.047,0.353-0.13,0.54-0.25l0.399,1.46
		c-0.24,0.146-0.5,0.246-0.78,0.3c-0.279,0.053-0.566,0.08-0.859,0.08c-0.854,0-1.554-0.267-2.101-0.8s-0.819-1.373-0.819-2.521
		v-5.399h-1.74V22.586z"/>
	<path d="M67,32.666h-1.32l-0.279-1.42c-0.32,0.467-0.737,0.847-1.25,1.14c-0.514,0.293-1.15,0.44-1.91,0.44
		c-0.427,0-0.827-0.057-1.2-0.17s-0.703-0.297-0.99-0.55c-0.287-0.254-0.514-0.57-0.68-0.95c-0.167-0.38-0.25-0.844-0.25-1.391
		c0-0.533,0.106-1.006,0.32-1.42c0.213-0.413,0.52-0.76,0.92-1.04c0.399-0.279,0.88-0.489,1.439-0.63
		c0.561-0.14,1.187-0.21,1.88-0.21h1.641v-0.439c0-0.773-0.214-1.313-0.641-1.62s-0.946-0.46-1.56-0.46
		c-0.521,0-0.974,0.137-1.36,0.41s-0.633,0.663-0.74,1.17l-1.479-0.341c0.146-0.853,0.54-1.526,1.18-2.02
		c0.641-0.493,1.44-0.74,2.4-0.74c0.56,0,1.076,0.073,1.55,0.221c0.474,0.146,0.883,0.373,1.23,0.68
		c0.346,0.307,0.616,0.7,0.81,1.18c0.193,0.48,0.29,1.054,0.29,1.72V32.666z M60.839,29.766c0,0.48,0.144,0.857,0.43,1.131
		c0.287,0.273,0.697,0.409,1.23,0.409c0.32,0,0.65-0.053,0.99-0.159c0.34-0.107,0.643-0.28,0.91-0.521
		c0.267-0.24,0.486-0.557,0.659-0.95c0.174-0.393,0.261-0.876,0.261-1.45v-0.239h-1.801c-0.866,0-1.529,0.153-1.989,0.46
		S60.839,29.193,60.839,29.766z"/>
	<path d="M73.079,22.426c1.227,0,2.2,0.514,2.92,1.54l-1.14,0.98c-0.333-0.36-0.637-0.617-0.91-0.771s-0.583-0.229-0.93-0.229
		s-0.637,0.109-0.87,0.33c-0.233,0.22-0.35,0.536-0.35,0.949c0,0.308,0.116,0.558,0.35,0.75c0.233,0.194,0.523,0.374,0.87,0.54
		c0.347,0.167,0.72,0.33,1.12,0.49c0.399,0.16,0.772,0.351,1.12,0.57c0.346,0.22,0.636,0.493,0.869,0.82
		c0.233,0.326,0.351,0.736,0.351,1.229c0,1.014-0.3,1.8-0.9,2.36c-0.6,0.56-1.413,0.84-2.439,0.84c-0.521,0-0.983-0.077-1.391-0.23
		c-0.406-0.152-0.763-0.359-1.069-0.62c-0.308-0.26-0.567-0.55-0.78-0.869c-0.214-0.32-0.387-0.653-0.521-1l1.421-0.78
		c0.227,0.547,0.532,1.014,0.92,1.399c0.386,0.388,0.859,0.58,1.42,0.58c0.506,0,0.903-0.13,1.189-0.39
		c0.287-0.26,0.431-0.656,0.431-1.19c0-0.306-0.114-0.556-0.341-0.75c-0.227-0.192-0.513-0.366-0.859-0.52s-0.72-0.307-1.12-0.46
		s-0.773-0.347-1.12-0.58s-0.634-0.523-0.86-0.87s-0.34-0.793-0.34-1.34c0-0.387,0.07-0.75,0.21-1.09
		c0.141-0.34,0.337-0.634,0.59-0.88c0.254-0.247,0.563-0.443,0.931-0.59C72.215,22.499,72.625,22.426,73.079,22.426z"/>
	<path d="M82.298,22.426c1.227,0,2.2,0.514,2.92,1.54l-1.14,0.98c-0.333-0.36-0.637-0.617-0.91-0.771s-0.583-0.229-0.93-0.229
		s-0.637,0.109-0.87,0.33c-0.233,0.22-0.35,0.536-0.35,0.949c0,0.308,0.116,0.558,0.35,0.75c0.233,0.194,0.523,0.374,0.87,0.54
		c0.347,0.167,0.72,0.33,1.12,0.49c0.399,0.16,0.772,0.351,1.12,0.57c0.346,0.22,0.636,0.493,0.869,0.82
		c0.233,0.326,0.351,0.736,0.351,1.229c0,1.014-0.3,1.8-0.9,2.36c-0.6,0.56-1.413,0.84-2.439,0.84c-0.521,0-0.983-0.077-1.391-0.23
		c-0.406-0.152-0.763-0.359-1.069-0.62c-0.308-0.26-0.567-0.55-0.78-0.869c-0.214-0.32-0.387-0.653-0.521-1l1.421-0.78
		c0.227,0.547,0.532,1.014,0.92,1.399c0.386,0.388,0.859,0.58,1.42,0.58c0.506,0,0.903-0.13,1.189-0.39
		c0.287-0.26,0.431-0.656,0.431-1.19c0-0.306-0.114-0.556-0.341-0.75c-0.227-0.192-0.513-0.366-0.859-0.52s-0.72-0.307-1.12-0.46
		s-0.773-0.347-1.12-0.58s-0.634-0.523-0.86-0.87s-0.34-0.793-0.34-1.34c0-0.387,0.07-0.75,0.21-1.09
		c0.141-0.34,0.337-0.634,0.59-0.88c0.254-0.247,0.563-0.443,0.931-0.59C81.435,22.499,81.845,22.426,82.298,22.426z"/>
	<path d="M96.999,27.986h-7.4c0.026,0.467,0.104,0.899,0.23,1.3c0.126,0.399,0.307,0.75,0.54,1.05c0.232,0.3,0.522,0.537,0.87,0.71
		c0.346,0.174,0.746,0.26,1.199,0.26c0.747,0,1.33-0.163,1.75-0.489c0.42-0.327,0.771-0.804,1.051-1.431l1.48,0.641
		c-0.467,0.986-1.038,1.699-1.71,2.14c-0.674,0.44-1.53,0.66-2.57,0.66c-0.76,0-1.427-0.144-2-0.43
		c-0.573-0.287-1.05-0.671-1.43-1.15c-0.38-0.48-0.663-1.033-0.85-1.66c-0.188-0.627-0.28-1.28-0.28-1.96s0.093-1.333,0.28-1.96
		c0.187-0.627,0.47-1.18,0.85-1.66c0.38-0.479,0.856-0.863,1.43-1.149c0.573-0.287,1.24-0.431,2-0.431
		c0.747,0,1.403,0.134,1.971,0.4c0.566,0.267,1.043,0.62,1.43,1.06c0.386,0.44,0.677,0.947,0.871,1.521s0.289,1.173,0.289,1.8
		V27.986z M92.439,23.946c-0.786,0-1.403,0.236-1.85,0.71c-0.447,0.474-0.743,1.076-0.89,1.81h5.54c-0.147-0.72-0.447-1.319-0.9-1.8
		S93.252,23.946,92.439,23.946z"/>
	<path d="M98.499,22.586h1.74v-3.02l1.68-1.061v4.08h2.639v1.521h-2.639v5.54c0,0.547,0.115,0.96,0.35,1.239
		c0.232,0.28,0.563,0.42,0.99,0.42c0.227,0,0.426-0.022,0.6-0.069s0.354-0.13,0.541-0.25l0.398,1.46
		c-0.24,0.146-0.5,0.246-0.779,0.3c-0.279,0.053-0.566,0.08-0.859,0.08c-0.854,0-1.555-0.267-2.102-0.8s-0.818-1.373-0.818-2.521
		v-5.399h-1.74V22.586z"/>
	<path d="M15.48,54.666H13.8v-6.74c0-1.319-0.54-1.979-1.62-1.979c-0.36,0-0.704,0.1-1.03,0.3s-0.613,0.497-0.86,0.89
		c-0.247,0.394-0.44,0.874-0.58,1.44s-0.21,1.217-0.21,1.95v4.14H7.82v-6.74c0-1.319-0.54-1.979-1.62-1.979
		c-0.36,0-0.704,0.1-1.03,0.3s-0.613,0.497-0.86,0.89c-0.247,0.394-0.44,0.874-0.58,1.44s-0.21,1.217-0.21,1.95v4.14H1.84v-10.08
		h1.68v1.86c0.32-0.641,0.747-1.137,1.28-1.49s1.153-0.53,1.86-0.53c0.707,0,1.293,0.184,1.76,0.55
		c0.467,0.367,0.78,0.884,0.94,1.551c0.347-0.667,0.8-1.184,1.36-1.551c0.56-0.366,1.2-0.55,1.92-0.55c0.92,0,1.623,0.28,2.11,0.84
		c0.486,0.561,0.73,1.327,0.73,2.301V54.666z"/>
	<path d="M18.32,49.626c0-0.68,0.11-1.333,0.33-1.96c0.22-0.627,0.54-1.18,0.96-1.66c0.42-0.479,0.926-0.863,1.52-1.149
		c0.593-0.287,1.27-0.431,2.03-0.431c0.76,0,1.437,0.144,2.03,0.431c0.593,0.286,1.1,0.67,1.52,1.149
		c0.42,0.48,0.74,1.033,0.96,1.66c0.22,0.627,0.33,1.28,0.33,1.96s-0.11,1.333-0.33,1.96c-0.22,0.627-0.54,1.18-0.96,1.66
		c-0.42,0.479-0.927,0.863-1.52,1.15c-0.594,0.286-1.27,0.43-2.03,0.43c-0.76,0-1.437-0.144-2.03-0.43
		c-0.594-0.287-1.1-0.671-1.52-1.15c-0.42-0.48-0.74-1.033-0.96-1.66C18.43,50.959,18.32,50.306,18.32,49.626z M20.04,49.626
		c0,0.467,0.067,0.92,0.2,1.36c0.133,0.439,0.33,0.833,0.59,1.18c0.26,0.347,0.583,0.623,0.97,0.83s0.84,0.31,1.36,0.31
		s0.973-0.103,1.36-0.31s0.71-0.483,0.97-0.83s0.457-0.74,0.59-1.18c0.133-0.44,0.2-0.894,0.2-1.36s-0.067-0.92-0.2-1.36
		c-0.133-0.439-0.33-0.833-0.59-1.18s-0.583-0.623-0.97-0.83c-0.387-0.206-0.84-0.31-1.36-0.31s-0.973,0.104-1.36,0.31
		c-0.387,0.207-0.71,0.483-0.97,0.83c-0.26,0.347-0.457,0.74-0.59,1.18C20.106,48.706,20.04,49.159,20.04,49.626z"/>
	<path d="M38.901,54.666h-1.682v-6.66c0-0.693-0.148-1.21-0.449-1.55s-0.73-0.51-1.289-0.51c-0.375,0-0.734,0.104-1.08,0.31
		c-0.348,0.207-0.654,0.504-0.921,0.891s-0.48,0.859-0.64,1.42c-0.16,0.56-0.24,1.187-0.24,1.88v4.22h-1.68v-10.08h1.68v1.86
		c0.373-0.653,0.847-1.153,1.42-1.5c0.572-0.347,1.213-0.521,1.92-0.521c0.92,0,1.643,0.273,2.17,0.82s0.791,1.32,0.791,2.32V54.666
		z"/>
	<path d="M42.06,41.786c0-0.36,0.119-0.663,0.359-0.91c0.24-0.246,0.54-0.37,0.9-0.37c0.359,0,0.66,0.124,0.899,0.37
		c0.24,0.247,0.36,0.55,0.36,0.91c0,0.347-0.12,0.64-0.36,0.88c-0.239,0.24-0.54,0.36-0.899,0.36c-0.36,0-0.66-0.12-0.9-0.36
		S42.06,42.133,42.06,41.786z M44.16,44.586v10.08h-1.68v-10.08H44.16z"/>
	<path d="M46.52,44.586h1.74v-3.02l1.68-1.061v4.08h2.64v1.521h-2.64v5.54c0,0.547,0.116,0.96,0.35,1.239
		c0.233,0.28,0.563,0.42,0.99,0.42c0.227,0,0.427-0.022,0.601-0.069c0.173-0.047,0.353-0.13,0.54-0.25l0.399,1.46
		c-0.24,0.146-0.5,0.246-0.78,0.3c-0.279,0.053-0.566,0.08-0.859,0.08c-0.854,0-1.554-0.267-2.101-0.8s-0.819-1.373-0.819-2.521
		v-5.399h-1.74V44.586z"/>
	<path d="M54.66,49.626c0-0.68,0.11-1.333,0.33-1.96s0.54-1.18,0.96-1.66c0.42-0.479,0.927-0.863,1.52-1.149
		c0.594-0.287,1.271-0.431,2.03-0.431s1.437,0.144,2.03,0.431c0.593,0.286,1.1,0.67,1.52,1.149c0.42,0.48,0.74,1.033,0.96,1.66
		c0.221,0.627,0.33,1.28,0.33,1.96s-0.109,1.333-0.33,1.96c-0.22,0.627-0.54,1.18-0.96,1.66c-0.42,0.479-0.927,0.863-1.52,1.15
		c-0.594,0.286-1.271,0.43-2.03,0.43s-1.437-0.144-2.03-0.43c-0.593-0.287-1.1-0.671-1.52-1.15c-0.42-0.48-0.74-1.033-0.96-1.66
		S54.66,50.306,54.66,49.626z M56.379,49.626c0,0.467,0.066,0.92,0.2,1.36c0.133,0.439,0.33,0.833,0.59,1.18s0.583,0.623,0.97,0.83
		s0.841,0.31,1.36,0.31c0.521,0,0.974-0.103,1.36-0.31s0.71-0.483,0.97-0.83s0.457-0.74,0.59-1.18c0.133-0.44,0.2-0.894,0.2-1.36
		s-0.067-0.92-0.2-1.36c-0.133-0.439-0.33-0.833-0.59-1.18s-0.583-0.623-0.97-0.83c-0.387-0.206-0.84-0.31-1.36-0.31
		c-0.52,0-0.974,0.104-1.36,0.31c-0.387,0.207-0.71,0.483-0.97,0.83s-0.457,0.74-0.59,1.18
		C56.446,48.706,56.379,49.159,56.379,49.626z"/>
	<path d="M72.939,46.226c-0.373-0.187-0.767-0.279-1.18-0.279c-0.347,0-0.687,0.1-1.02,0.3c-0.334,0.2-0.634,0.507-0.9,0.92
		s-0.483,0.927-0.65,1.54c-0.166,0.613-0.25,1.327-0.25,2.14v3.82h-1.68v-10.08h1.68v1.72c0.147-0.279,0.334-0.536,0.561-0.77
		s0.47-0.43,0.729-0.59c0.261-0.16,0.533-0.287,0.82-0.38c0.287-0.094,0.57-0.141,0.851-0.141c0.279,0,0.543,0.03,0.789,0.09
		c0.247,0.061,0.443,0.131,0.591,0.21L72.939,46.226z"/>
	<path d="M75.12,41.786c0-0.36,0.119-0.663,0.359-0.91c0.24-0.246,0.54-0.37,0.9-0.37c0.359,0,0.66,0.124,0.899,0.37
		c0.24,0.247,0.36,0.55,0.36,0.91c0,0.347-0.12,0.64-0.36,0.88c-0.239,0.24-0.54,0.36-0.899,0.36c-0.36,0-0.66-0.12-0.9-0.36
		S75.12,42.133,75.12,41.786z M77.219,44.586v10.08h-1.68v-10.08H77.219z"/>
	<path d="M88.899,54.666h-1.681v-6.66c0-0.693-0.149-1.21-0.449-1.55c-0.301-0.34-0.73-0.51-1.29-0.51
		c-0.374,0-0.733,0.104-1.08,0.31c-0.348,0.207-0.653,0.504-0.92,0.891c-0.268,0.387-0.48,0.859-0.641,1.42
		c-0.16,0.56-0.24,1.187-0.24,1.88v4.22h-1.68v-10.08h1.68v1.86c0.374-0.653,0.847-1.153,1.421-1.5
		c0.572-0.347,1.213-0.521,1.92-0.521c0.92,0,1.643,0.273,2.17,0.82c0.526,0.547,0.79,1.32,0.79,2.32V54.666z"/>
	<path d="M92.418,47.826c0-0.521,0.09-0.99,0.271-1.41c0.18-0.42,0.43-0.776,0.75-1.07c0.319-0.293,0.692-0.52,1.12-0.68
		c0.426-0.16,0.886-0.24,1.379-0.24c0.334,0,0.652,0.04,0.961,0.12c0.307,0.08,0.592,0.193,0.859,0.34l1.801-1.02l0.76,1.38
		l-1.361,0.76c0.334,0.521,0.5,1.127,0.5,1.82c0,0.52-0.09,0.99-0.27,1.41s-0.43,0.773-0.75,1.06
		c-0.32,0.287-0.693,0.507-1.119,0.66c-0.428,0.153-0.887,0.229-1.381,0.229c-0.667,0-1.247-0.119-1.74-0.359
		c-0.44,0.213-0.66,0.54-0.66,0.979c0,0.561,0.38,0.841,1.14,0.841h2.381c0.945,0,1.709,0.233,2.289,0.699
		c0.58,0.467,0.869,1.16,0.869,2.08c0,0.627-0.113,1.16-0.34,1.601c-0.227,0.439-0.537,0.8-0.93,1.08
		c-0.393,0.279-0.846,0.482-1.359,0.609s-1.057,0.19-1.631,0.19c-0.639,0-1.223-0.073-1.75-0.221
		c-0.526-0.146-0.977-0.363-1.35-0.649c-0.374-0.287-0.664-0.637-0.87-1.05c-0.207-0.414-0.311-0.88-0.311-1.4
		c0-0.467,0.091-0.877,0.271-1.229c0.18-0.354,0.403-0.644,0.67-0.87c-0.214-0.187-0.38-0.41-0.5-0.67
		c-0.12-0.261-0.18-0.57-0.18-0.931c0-0.427,0.109-0.796,0.33-1.109c0.22-0.313,0.517-0.563,0.89-0.75
		c-0.227-0.28-0.407-0.604-0.54-0.971C92.485,48.689,92.418,48.279,92.418,47.826z M94.758,54.086c-0.133,0-0.263-0.003-0.39-0.01
		s-0.243-0.017-0.35-0.03c-0.24,0.187-0.41,0.403-0.511,0.65c-0.1,0.246-0.149,0.522-0.149,0.83c0,0.56,0.217,1.017,0.649,1.37
		c0.434,0.353,1.083,0.529,1.95,0.529c0.881,0,1.523-0.177,1.93-0.529c0.408-0.354,0.611-0.79,0.611-1.311
		c0-0.56-0.16-0.95-0.48-1.17s-0.727-0.33-1.221-0.33H94.758z M94.059,47.826c0,0.64,0.187,1.12,0.56,1.439
		c0.373,0.32,0.813,0.48,1.32,0.48c0.506,0,0.947-0.16,1.32-0.48c0.373-0.319,0.561-0.8,0.561-1.439c0-0.641-0.188-1.127-0.561-1.46
		s-0.814-0.5-1.32-0.5c-0.506,0-0.947,0.167-1.32,0.5S94.059,47.186,94.059,47.826z"/>
	<path d="M110.839,44.426c1.227,0,2.199,0.514,2.92,1.54l-1.141,0.98c-0.332-0.36-0.637-0.617-0.91-0.771s-0.582-0.229-0.93-0.229
		c-0.346,0-0.637,0.109-0.869,0.33c-0.234,0.22-0.35,0.536-0.35,0.949c0,0.308,0.115,0.558,0.35,0.75
		c0.232,0.194,0.523,0.374,0.869,0.54c0.348,0.167,0.721,0.33,1.121,0.49c0.398,0.16,0.771,0.351,1.119,0.57
		c0.346,0.22,0.637,0.493,0.869,0.82c0.234,0.326,0.352,0.736,0.352,1.229c0,1.014-0.301,1.8-0.9,2.36
		c-0.6,0.56-1.414,0.84-2.439,0.84c-0.521,0-0.984-0.077-1.391-0.23c-0.406-0.152-0.764-0.359-1.07-0.62
		c-0.307-0.26-0.566-0.55-0.779-0.869c-0.215-0.32-0.387-0.653-0.521-1l1.422-0.78c0.227,0.547,0.531,1.014,0.92,1.399
		c0.385,0.388,0.859,0.58,1.42,0.58c0.506,0,0.902-0.13,1.189-0.39s0.43-0.656,0.43-1.19c0-0.306-0.113-0.556-0.34-0.75
		c-0.227-0.192-0.514-0.366-0.859-0.52c-0.348-0.153-0.721-0.307-1.121-0.46s-0.773-0.347-1.119-0.58
		c-0.348-0.233-0.635-0.523-0.861-0.87s-0.34-0.793-0.34-1.34c0-0.387,0.07-0.75,0.211-1.09s0.336-0.634,0.59-0.88
		c0.254-0.247,0.563-0.443,0.93-0.59C109.976,44.499,110.386,44.426,110.839,44.426z"/>
	<path d="M116.419,49.626c0-0.68,0.109-1.333,0.33-1.96c0.219-0.627,0.539-1.18,0.959-1.66c0.42-0.479,0.928-0.863,1.52-1.149
		c0.594-0.287,1.271-0.431,2.031-0.431s1.436,0.144,2.029,0.431c0.594,0.286,1.1,0.67,1.52,1.149c0.42,0.48,0.74,1.033,0.961,1.66
		s0.33,1.28,0.33,1.96s-0.109,1.333-0.33,1.96s-0.541,1.18-0.961,1.66c-0.42,0.479-0.926,0.863-1.52,1.15
		c-0.594,0.286-1.27,0.43-2.029,0.43s-1.438-0.144-2.031-0.43c-0.592-0.287-1.1-0.671-1.52-1.15c-0.42-0.48-0.74-1.033-0.959-1.66
		C116.528,50.959,116.419,50.306,116.419,49.626z M118.138,49.626c0,0.467,0.066,0.92,0.201,1.36c0.133,0.439,0.33,0.833,0.59,1.18
		s0.582,0.623,0.969,0.83s0.842,0.31,1.361,0.31s0.973-0.103,1.359-0.31s0.711-0.483,0.971-0.83s0.457-0.74,0.59-1.18
		c0.133-0.44,0.199-0.894,0.199-1.36s-0.066-0.92-0.199-1.36c-0.133-0.439-0.33-0.833-0.59-1.18s-0.584-0.623-0.971-0.83
		c-0.387-0.206-0.84-0.31-1.359-0.31s-0.975,0.104-1.361,0.31c-0.387,0.207-0.709,0.483-0.969,0.83s-0.457,0.74-0.59,1.18
		C118.204,48.706,118.138,49.159,118.138,49.626z"/>
	<path d="M130.659,40.506v14.16h-1.682v-14.16H130.659z"/>
	<path d="M134.058,44.586h1.682v6.66c0,0.693,0.148,1.21,0.449,1.55s0.73,0.51,1.289,0.51c0.373,0,0.734-0.103,1.08-0.31
		c0.348-0.207,0.654-0.503,0.92-0.89c0.268-0.387,0.48-0.857,0.641-1.41c0.16-0.554,0.24-1.184,0.24-1.891v-4.22h1.68v10.08h-1.68
		v-1.86c-0.373,0.653-0.848,1.153-1.42,1.5c-0.574,0.348-1.213,0.521-1.92,0.521c-0.92,0-1.645-0.273-2.17-0.82
		c-0.527-0.547-0.791-1.32-0.791-2.32V44.586z"/>
	<path d="M144.378,44.586h1.74v-3.02l1.68-1.061v4.08h2.641v1.521h-2.641v5.54c0,0.547,0.117,0.96,0.35,1.239
		c0.234,0.28,0.564,0.42,0.99,0.42c0.227,0,0.428-0.022,0.602-0.069c0.172-0.047,0.352-0.13,0.539-0.25l0.4,1.46
		c-0.24,0.146-0.5,0.246-0.781,0.3c-0.279,0.053-0.566,0.08-0.859,0.08c-0.854,0-1.553-0.267-2.1-0.8s-0.82-1.373-0.82-2.521v-5.399
		h-1.74V44.586z"/>
	<path d="M152.878,41.786c0-0.36,0.119-0.663,0.359-0.91c0.24-0.246,0.541-0.37,0.9-0.37s0.66,0.124,0.9,0.37
		c0.24,0.247,0.359,0.55,0.359,0.91c0,0.347-0.119,0.64-0.359,0.88s-0.541,0.36-0.9,0.36s-0.66-0.12-0.9-0.36
		S152.878,42.133,152.878,41.786z M154.978,44.586v10.08h-1.68v-10.08H154.978z"/>
	<path d="M157.917,49.626c0-0.68,0.111-1.333,0.33-1.96c0.221-0.627,0.541-1.18,0.961-1.66c0.42-0.479,0.926-0.863,1.52-1.149
		c0.594-0.287,1.27-0.431,2.029-0.431s1.438,0.144,2.031,0.431c0.592,0.286,1.1,0.67,1.52,1.149c0.42,0.48,0.74,1.033,0.959,1.66
		c0.221,0.627,0.33,1.28,0.33,1.96s-0.109,1.333-0.33,1.96c-0.219,0.627-0.539,1.18-0.959,1.66c-0.42,0.479-0.928,0.863-1.52,1.15
		c-0.594,0.286-1.271,0.43-2.031,0.43s-1.436-0.144-2.029-0.43c-0.594-0.287-1.1-0.671-1.52-1.15c-0.42-0.48-0.74-1.033-0.961-1.66
		C158.028,50.959,157.917,50.306,157.917,49.626z M159.638,49.626c0,0.467,0.066,0.92,0.199,1.36c0.133,0.439,0.33,0.833,0.59,1.18
		s0.584,0.623,0.971,0.83s0.84,0.31,1.359,0.31c0.521,0,0.975-0.103,1.361-0.31s0.709-0.483,0.969-0.83s0.457-0.74,0.59-1.18
		c0.133-0.44,0.201-0.894,0.201-1.36s-0.068-0.92-0.201-1.36c-0.133-0.439-0.33-0.833-0.59-1.18s-0.582-0.623-0.969-0.83
		c-0.387-0.206-0.84-0.31-1.361-0.31c-0.52,0-0.973,0.104-1.359,0.31c-0.387,0.207-0.711,0.483-0.971,0.83s-0.457,0.74-0.59,1.18
		C159.704,48.706,159.638,49.159,159.638,49.626z"/>
	<path d="M178.497,54.666h-1.68v-6.66c0-0.693-0.15-1.21-0.449-1.55c-0.301-0.34-0.73-0.51-1.291-0.51
		c-0.373,0-0.732,0.104-1.08,0.31c-0.348,0.207-0.652,0.504-0.92,0.891s-0.48,0.859-0.641,1.42c-0.16,0.56-0.24,1.187-0.24,1.88
		v4.22h-1.68v-10.08h1.68v1.86c0.375-0.653,0.848-1.153,1.422-1.5c0.572-0.347,1.213-0.521,1.92-0.521c0.92,0,1.643,0.273,2.17,0.82
		c0.525,0.547,0.789,1.32,0.789,2.32V54.666z"/>
</g>
<g>
	<path fill="none" stroke="#000000" stroke-width="0.987" stroke-miterlimit="10" d="M140.007,27.98h-5.661V13.775h11.183v12.949
		 M133.42,31.454c-0.272,0-0.77-0.223-0.77-0.494V12.301c0-0.272,0.223-0.495,0.494-0.495h13.585c0.272,0,0.495,0.222,0.495,0.495
		v15.68"/>
</g>
<g>
	<path fill="#52BA64" d="M140.443,29.56c0,0.28-0.227,0.505-0.506,0.505s-0.506-0.225-0.506-0.505s0.227-0.506,0.506-0.506
		S140.443,29.279,140.443,29.56"/>
	<path fill="none" stroke="#000000" stroke-width="0.987" stroke-miterlimit="10" d="M149.243,37.274l-2.54-2.541l3.436-3.436
		l1.371,1.372 M147.098,34.381c0,0-0.733-1.018-1.649-0.468c0,0-1.057,0.321-2.018-0.779l-1.694-1.68c0,0-0.393-0.911,0.203-0.911
		l-1.854-1.717c0,0-0.506-1.834,1.055-1.121l1.236,1.029c0,0,0.276-0.481,1.054-0.397c0,0,0-1.207,1.329-0.931
		c0,0,0.46-1.102,1.376-0.506l2.337,2.153c0,0,0.917,0.707,0.733,1.522c0,0,0.229,0.621,0.733,0.878 M134.312,36.972V35.06h4.858
		v2.009 M141.762,31.576h-6.351c-0.596,0-0.458-0.396-0.458-0.396c-0.045-1.13-0.458-1.39-0.458-1.39
		c-0.917-0.778-0.825,0.428-0.825,0.428c-0.459,3.317,0.274,3.466,0.274,3.466c1.329,0.916,0.963,1.376,0.963,1.376h3.483
		c-0.047-0.596,0.183-0.954,0.183-0.954c0.643-0.633,0.596-1.154,0.596-1.154l0.001-1.375"/>
</g>
<g>
	<path fill="#52BA64" d="M139.938,20.121c0.36,0,0.652,0.292,0.652,0.653c0,0.36-0.292,0.652-0.652,0.652
		c-0.361,0-0.653-0.292-0.653-0.652C139.284,20.413,139.576,20.121,139.938,20.121"/>
</g>
<g>
	<path fill="none" stroke="#52BA64" stroke-width="0.987" stroke-miterlimit="10" d="M140.234,7.73V5.934 M142.729,18.674
		c0.388,0.622,0.609,1.338,0.609,2.101c0,0.762-0.222,1.478-0.609,2.101 M141.547,19.307c0.265,0.436,0.416,0.936,0.416,1.468
		s-0.151,1.031-0.416,1.468 M137.146,18.674c-0.388,0.622-0.61,1.338-0.61,2.101c0,0.762,0.223,1.478,0.61,2.101 M138.328,19.307
		c-0.266,0.436-0.416,0.936-0.416,1.468s0.15,1.031,0.416,1.468"/>
	<path fill="none" stroke="#000000" stroke-width="0.987" stroke-miterlimit="10" d="M136.717,8.135l1.086-1.086 M136.654,1.101
		l1.086,1.087 M139.7,10.753h0.944 M139.18,9.814h1.984 M139.18,8.874h1.984 M142.542,4.509c0-1.309-1.061-2.37-2.37-2.37
		c-1.309,0-2.369,1.061-2.369,2.37c0,1.138,0.813,1.786,0.813,1.786s0.627,0.608,0.627,1.534h1.859c0-0.869,0.627-1.534,0.627-1.534
		S142.542,5.647,142.542,4.509z"/>
	<path fill="none" stroke="#52BA64" stroke-width="0.987" stroke-miterlimit="10" d="M140.172,0v1.254 M135.346,4.641h1.254"/>
	<path fill="none" stroke="#000000" stroke-width="0.987" stroke-miterlimit="10" d="M143.621,8.135l-1.087-1.087 M143.683,1.102
		l-1.087,1.087"/>
	
		<line fill="none" stroke="#52BA64" stroke-width="0.987" stroke-miterlimit="10" x1="144.991" y1="4.641" x2="143.736" y2="4.641"/>
	<circle fill="none" stroke="#000000" stroke-width="0.987" stroke-miterlimit="10" cx="115.726" cy="10.761" r="1.624"/>
</g>
<g>
	
		<line fill="none" stroke="#52BA64" stroke-width="0.987" stroke-miterlimit="10" x1="124.585" y1="4.188" x2="128.335" y2="7.841"/>
</g>
<g>
	
		<line fill="none" stroke="#000000" stroke-width="0.987" stroke-miterlimit="10" x1="118.201" y1="11.248" x2="123.948" y2="16.851"/>
	
		<line fill="none" stroke="#52BA64" stroke-width="0.987" stroke-miterlimit="10" x1="115.823" y1="13.154" x2="121.347" y2="18.534"/>
	
		<line fill="none" stroke="#000000" stroke-width="0.987" stroke-miterlimit="10" x1="125.377" y1="3.485" x2="128.943" y2="6.959"/>
</g>
<g>
	<polyline fill="none" stroke="#52BA64" stroke-width="0.987" stroke-miterlimit="10" points="128.13,8.518 127.349,8.518 
		127.349,12.316 128.13,12.316 	"/>
	<polyline fill="none" stroke="#000000" stroke-width="0.987" stroke-miterlimit="10" points="130.719,8.518 131.501,8.518 
		131.501,12.316 130.719,12.316 	"/>
</g>
<g>
	<path fill="none" stroke="#52BA64" stroke-width="0.987" stroke-miterlimit="10" d="M130.625,8.168
		c0,0.046-0.003,0.092-0.008,0.137c-0.068,0.616-0.591,1.094-1.225,1.094c-0.63,0-1.149-0.474-1.223-1.085
		c-0.005-0.048-0.008-0.097-0.008-0.146c0-0.681,0.551-1.232,1.23-1.232C130.074,6.936,130.625,7.487,130.625,8.168z"/>
	<path fill="none" stroke="#000000" stroke-width="0.987" stroke-miterlimit="10" d="M118.01,9.724l5.589-5.589 M114.227,8.874
		l-0.764-0.764l7.466-7.483l1.28,1.247 M116.665,8.495l5.49-5.49"/>
</g>
<g>
	<polyline fill="none" stroke="#52BA64" stroke-width="0.987" stroke-miterlimit="10" points="121.355,20.521 121.355,16.848 
		124.323,16.848 	"/>
</g>
<g>
	<path fill="none" stroke="#000000" stroke-width="0.987" stroke-miterlimit="10" d="M125.422,2.608
		c0,0.897-0.728,1.625-1.624,1.625c-0.897,0-1.625-0.728-1.625-1.625s0.728-1.625,1.625-1.625
		C124.694,0.983,125.422,1.711,125.422,2.608z M120.969,4.248v2.498 M118.935,6.138v2.497 M124.323,18.411v2.231 M120.313,22.361
		v-1.598h8.02v1.598 M124.323,16.848h3.025v3.672"/>
	<circle fill="none" stroke="#52BA64" stroke-width="0.987" stroke-miterlimit="10" cx="115.726" cy="10.761" r="2.49"/>
	<polyline fill="none" stroke="#000000" stroke-width="0.987" stroke-miterlimit="10" points="132.375,25.851 113.622,25.851 
		113.622,22.361 132.375,22.361 	"/>
</g>
</svg>
