<?xml version="1.0" encoding="utf-8"?>
<!-- Generator: Adobe Illustrator 16.0.3, SVG Export Plug-In . SVG Version: 6.00 Build 0)  -->
<!DOCTYPE svg PUBLIC "-//W3C//DTD SVG 1.1//EN" "http://www.w3.org/Graphics/SVG/1.1/DTD/svg11.dtd">
<svg version="1.1" id="Layer_1" xmlns="http://www.w3.org/2000/svg" xmlns:xlink="http://www.w3.org/1999/xlink" x="0px" y="0px"
	 width="483.516px" height="68px" viewBox="0 0 483.516 68" enable-background="new 0 0 483.516 68" xml:space="preserve">
<g>
	<g>
		<path fill="none" stroke="#FFFFFF" stroke-width="1.5" d="M12.621,23.707c-1.753,0.006-3.506,0.01-5.26,0.017
			c-0.73,0.006-0.882-0.146-0.94-0.87c-0.2-2.403,0.187-4.715,1.244-6.881c2.046-4.182,5.364-6.794,9.952-7.614
			c2.798-0.498,5.532-0.137,7.938,0.938"/>
		<path fill="none" stroke="#FFFFFF" stroke-width="1.5" d="M20.517,26.322c-1.439-0.032-2.621-0.804-3.171-2.13
			c-0.625-1.5-0.991-3.079-1.297-4.669c-0.215-1.113-0.386-2.236-0.562-3.354c-0.025-0.171-0.011-0.369,0.047-0.533
			c0.101-0.29,0.456-0.438,0.757-0.341c0.133,0.044,0.265,0.109,0.377,0.192c1.942,1.431,3.843,2.914,5.551,4.627
			c0.293,0.292,0.567,0.608,0.845,0.919c1.575,1.761,0.727,4.457-1.596,5.122C21.159,26.239,20.833,26.268,20.517,26.322z"/>
		<path fill="none" stroke="#41C363" stroke-width="1.5" d="M25.479,9.261c2.834,1.246,5.224,3.476,6.724,6.454
			c1.114,2.21,1.563,4.563,1.372,7.037c-0.01,0.111-0.01,0.223-0.018,0.334c-0.029,0.371-0.273,0.632-0.646,0.632
			c-1.914,0.001-3.229-0.005-5.145-0.015"/>
	</g>
</g>
<g>
	<g>
		<path fill="none" stroke="#FFFFFF" stroke-width="1.5" d="M12.621,58.289c-1.753,0.006-3.506,0.01-5.26,0.021
			c-0.73,0.006-0.882-0.146-0.94-0.869c-0.2-2.398,0.187-4.727,1.244-6.887c2.046-4.188,5.364-6.801,9.952-7.609
			c2.798-0.498,5.532-0.141,7.938,0.938"/>
		<path fill="none" stroke="#FFFFFF" stroke-width="1.5" d="M20.517,60.902c-1.439-0.031-2.621-0.805-3.171-2.131
			c-0.625-1.5-0.991-3.078-1.297-4.67c-0.215-1.113-0.386-2.236-0.562-3.354c-0.025-0.172-0.011-0.369,0.047-0.533
			c0.101-0.289,0.456-0.438,0.757-0.342c0.133,0.045,0.265,0.108,0.377,0.19c1.942,1.433,3.843,2.914,5.551,4.627
			c0.293,0.293,0.567,0.606,0.845,0.922c1.575,1.761,0.727,4.455-1.596,5.121C21.159,60.818,20.833,60.848,20.517,60.902z"/>
		<path fill="none" stroke="#000000" stroke-width="1.5" d="M25.479,43.84c2.834,1.246,5.224,3.477,6.724,6.455
			c1.114,2.209,1.563,4.563,1.372,7.035c-0.01,0.104-0.01,0.225-0.018,0.334c-0.029,0.365-0.273,0.633-0.646,0.633
			c-1.914,0.002-3.229-0.004-5.145-0.021"/>
	</g>
</g>
<g id="Livello_110">
	<path fill="none" stroke="#FFFFFF" stroke-width="1.5" stroke-miterlimit="10" d="M65.718,13.787c0,2.448-1.995,4.434-4.454,4.434
		c-2.461,0-4.455-1.986-4.455-4.434c0-2.448,1.995-4.434,4.455-4.434C63.725,9.353,65.718,11.338,65.718,13.787"/>
</g>
<path fill="none" stroke="#41C363" stroke-width="1.5" stroke-miterlimit="10" d="M64.986,24.251l2.965-4.225
	c0.251-0.311,0.479-0.641,0.686-0.985l0.071-0.101l0.437-0.719c0.759-1.306,1.196-2.819,1.196-4.435"/>
<path fill="none" stroke="#000000" stroke-width="1.5" stroke-miterlimit="10" d="M70.339,13.787c0-0.027,0-0.054,0-0.081"/>
<path fill="none" stroke="#41C363" stroke-width="1.5" stroke-miterlimit="10" d="M70.339,13.787"/>
<path fill="none" stroke="#FFFFFF" stroke-width="1.5" stroke-miterlimit="10" d="M70.339,13.787c0-4.897-3.989-8.867-8.909-8.867
	c-4.919,0-8.908,3.97-8.908,8.867c0,2.153,0.773,4.127,2.055,5.664l6.862,9.854l3.604-5.137"/>
<g id="Livello_110_1_">
	<path fill="none" stroke="#FFFFFF" stroke-width="1.5" stroke-miterlimit="10" d="M65.718,47.787c0,2.447-1.995,4.436-4.454,4.436
		c-2.461,0-4.455-1.986-4.455-4.436c0-2.447,1.995-4.434,4.455-4.434S65.718,45.338,65.718,47.787"/>
</g>
<path fill="none" stroke="#000000" stroke-width="1.5" stroke-miterlimit="10" d="M64.986,58.252l2.965-4.227
	c0.251-0.313,0.479-0.645,0.686-0.984l0.071-0.102l0.437-0.719c0.759-1.309,1.196-2.818,1.196-4.438"/>
<path fill="none" stroke="#000000" stroke-width="1.5" stroke-miterlimit="10" d="M70.339,47.787c0-0.025,0-0.055,0-0.08"/>
<path fill="none" stroke="#41C363" stroke-width="1.5" stroke-miterlimit="10" d="M70.339,47.787"/>
<path fill="none" stroke="#FFFFFF" stroke-width="1.5" stroke-miterlimit="10" d="M70.339,47.787c0-4.896-3.989-8.867-8.909-8.867
	c-4.919,0-8.908,3.973-8.908,8.867c0,2.154,0.773,4.129,2.055,5.664l6.862,9.854l3.604-5.137"/>
<g>
	<path fill="none" stroke="#FFFFFF" stroke-width="1.5" stroke-miterlimit="10" d="M280.413,29.173c-9.115,0-17.062,0-26.178-0.003
		c-0.038,0-0.138,0.073-0.135-0.056c0.117-0.403,0.238-0.806,0.354-1.21c0.61-2.188,1.221-4.375,1.826-6.564
		c0.031-0.117,0.084-0.165,0.204-0.191c0.954-0.206,1.908-0.42,2.861-0.633c0.048-0.01,0.096-0.017,0.159-0.029
		c0,1.538,0,3.061,0,4.592"/>
	<path fill="none" stroke="#FFFFFF" stroke-width="1.5" stroke-miterlimit="10" d="M280.006,21.709
		c-0.01,1.813-0.016,3.625-0.021,5.437v2.761"/>
	<path fill="none" stroke="#FFFFFF" stroke-width="1.5" stroke-miterlimit="10" d="M271.679,25.076c0-1.522,0-3.046,0-4.583
		c0.058,0.005,0.1,0.004,0.142,0.013c0.982,0.217,1.967,0.435,2.946,0.658c0.063,0.015,0.132,0.067,0.177,0.119
		c0.502,0.59,1.001,1.184,1.5,1.776c0.032,0.038,0.064,0.074,0.133,0.146c0-0.093,0-0.147,0-0.202
		c0.006-2.142,0.01-4.283,0.021-6.424c0.001-0.17-0.046-0.286-0.166-0.407c-0.481-0.48-0.964-0.962-1.443-1.445"/>
	<path fill="none" stroke="#FFFFFF" stroke-width="1.5" stroke-miterlimit="10" d="M259.905,20.398
		c0.264-0.049,1.868-0.376,2.094-0.5c0.225-0.122,0.381-0.358,0.565-0.544c0.192-0.193,0.388-0.386,0.604-0.604
		c0.029,0.042,0.056,0.086,0.086,0.123c0.535,0.582,1.068,1.163,1.605,1.742c0.028,0.03,0.082,0.052,0.124,0.052
		c0.402,0.003,0.806,0.005,1.208-0.001c0.049-0.001,0.107-0.035,0.145-0.072c0.563-0.604,1.117-1.211,1.687-1.826
		c0.036,0.033,0.069,0.061,0.101,0.09c0.326,0.327,0.649,0.656,0.979,0.978c0.06,0.055,0.14,0.098,0.214,0.117
		c0.211,0.055,1.813,0.471,2.023,0.509"/>
	<path fill="none" stroke="#FFFFFF" stroke-width="1.5" stroke-miterlimit="10" d="M272.724,12.016c-4.771,0-9.54,0-14.321,0"/>
	<path fill="none" stroke="#FFFFFF" stroke-width="1.5" stroke-miterlimit="10" d="M259.702,11.709
		c0.066-0.642,0.115-1.287,0.221-1.922c0.18-1.136,0.508-2.226,1.179-3.182c0.733-1.05,1.756-1.66,3.002-1.903
		c0.369-0.072,0.745-0.102,1.119-0.151c0.249,0,0.495,0,0.745,0c0.311,0.038,0.621,0.063,0.929,0.115
		c1.813,0.302,3.063,1.324,3.778,3.007c0.373,0.874,0.57,1.794,0.687,2.733c0.054,0.443,0.089,0.89,0.125,1.334"/>
	<path fill="none" stroke="#FFFFFF" stroke-width="1.5" stroke-miterlimit="10" d="M260.333,12.033c3.52,0,7.024,0,10.545,0
		c-0.121,0.757-0.319,1.482-0.586,2.189c-0.426,1.133-0.985,2.189-1.783,3.107c-0.396,0.453-0.838,0.848-1.365,1.142
		c-1.087,0.604-2.162,0.563-3.219-0.079c-0.816-0.496-1.426-1.2-1.938-1.99c-0.845-1.304-1.372-2.733-1.646-4.259
		C260.334,12.108,260.334,12.075,260.333,12.033z"/>
</g>
<path fill="none" stroke="#41C363" stroke-width="1.5" stroke-miterlimit="10" d="M275.069,14.812
	c-0.512-0.514-1.021-1.029-1.535-1.542c-0.08-0.082-0.089-0.136-0.027-0.236c0.774-1.34,1.551-2.681,2.318-4.024
	c0.059-0.103,0.119-0.137,0.232-0.131c0.178,0.009,0.354,0.002,0.553,0.002c0,1.199,0,2.383,0,3.58c1.18,0,2.34,0,3.51,0
	c0-1.188,0-2.373,0-3.576c0.234,0,0.457-0.006,0.68,0.005c0.041,0.002,0.088,0.071,0.113,0.119c0.771,1.332,1.541,2.664,2.313,3.995
	c0.025,0.046,0.063,0.088,0.092,0.132c0,0.01,0,0.021,0,0.03c-1.068,1.078-2.145,2.155-3.211,3.236
	c-0.045,0.046-0.074,0.129-0.074,0.194c-0.01,1.745-0.018,3.49-0.021,5.235"/>
<g>
	<path fill="none" stroke="#FFFFFF" stroke-width="1.5" stroke-miterlimit="10" d="M280.413,63.174c-9.115,0-17.062,0-26.178-0.004
		c-0.038,0-0.138,0.068-0.135-0.059c0.117-0.4,0.238-0.807,0.354-1.211c0.61-2.188,1.221-4.375,1.826-6.563
		c0.031-0.116,0.084-0.166,0.204-0.19c0.954-0.205,1.908-0.42,2.861-0.633c0.048-0.011,0.096-0.019,0.159-0.029
		c0,1.539,0,3.063,0,4.597"/>
	<path fill="none" stroke="#FFFFFF" stroke-width="1.5" stroke-miterlimit="10" d="M280.006,55.709
		c-0.01,1.813-0.016,3.625-0.021,5.438v2.766"/>
	<path fill="none" stroke="#FFFFFF" stroke-width="1.5" stroke-miterlimit="10" d="M271.679,59.076c0-1.521,0-3.047,0-4.582
		c0.058,0.004,0.1,0.004,0.142,0.012c0.982,0.221,1.967,0.438,2.946,0.658c0.063,0.018,0.132,0.066,0.177,0.119
		c0.502,0.592,1.001,1.184,1.5,1.775c0.032,0.039,0.064,0.07,0.133,0.146c0-0.095,0-0.146,0-0.201
		c0.006-2.144,0.01-4.28,0.021-6.424c0.001-0.172-0.046-0.287-0.166-0.408c-0.481-0.479-0.964-0.961-1.443-1.44"/>
	<path fill="none" stroke="#FFFFFF" stroke-width="1.5" stroke-miterlimit="10" d="M259.905,54.398
		c0.264-0.049,1.868-0.377,2.094-0.5c0.225-0.123,0.381-0.359,0.565-0.545c0.192-0.191,0.388-0.389,0.604-0.604
		c0.029,0.043,0.056,0.086,0.086,0.123c0.535,0.582,1.068,1.157,1.605,1.737c0.028,0.029,0.082,0.056,0.124,0.056
		c0.402,0.004,0.806,0.004,1.208-0.002c0.049,0,0.107-0.035,0.145-0.072c0.563-0.604,1.117-1.211,1.687-1.825
		c0.036,0.032,0.069,0.063,0.101,0.092c0.326,0.326,0.649,0.653,0.979,0.979c0.06,0.058,0.14,0.101,0.214,0.117
		c0.211,0.055,1.813,0.471,2.023,0.508"/>
	<path fill="none" stroke="#FFFFFF" stroke-width="1.5" stroke-miterlimit="10" d="M272.724,46.016c-4.771,0-9.54,0-14.321,0"/>
	<path fill="none" stroke="#FFFFFF" stroke-width="1.5" stroke-miterlimit="10" d="M259.702,45.709
		c0.066-0.643,0.115-1.287,0.221-1.922c0.18-1.137,0.508-2.227,1.179-3.184c0.733-1.049,1.756-1.66,3.002-1.902
		c0.369-0.072,0.745-0.102,1.119-0.15c0.249,0,0.495,0,0.745,0c0.311,0.037,0.621,0.063,0.929,0.115
		c1.813,0.301,3.063,1.322,3.778,3.006c0.373,0.875,0.57,1.795,0.687,2.734c0.054,0.443,0.089,0.889,0.125,1.334"/>
	<path fill="none" stroke="#FFFFFF" stroke-width="1.5" stroke-miterlimit="10" d="M260.333,46.033c3.52,0,7.024,0,10.545,0
		c-0.121,0.758-0.319,1.482-0.586,2.189c-0.426,1.133-0.985,2.188-1.783,3.104c-0.396,0.447-0.838,0.85-1.365,1.145
		c-1.087,0.604-2.162,0.563-3.219-0.08c-0.816-0.496-1.426-1.199-1.938-1.99c-0.845-1.303-1.372-2.73-1.646-4.258
		C260.334,46.109,260.334,46.074,260.333,46.033z"/>
</g>
<path fill="none" stroke="#000000" stroke-width="1.5" stroke-miterlimit="10" d="M275.069,48.813
	c-0.512-0.516-1.021-1.025-1.535-1.543c-0.08-0.082-0.089-0.137-0.027-0.232c0.774-1.344,1.551-2.684,2.318-4.021
	c0.059-0.104,0.119-0.139,0.232-0.133c0.178,0.016,0.354,0.002,0.553,0.002c0,1.199,0,2.391,0,3.58c1.18,0,2.34,0,3.51,0
	c0-1.188,0-2.373,0-3.574c0.234,0,0.457-0.008,0.68,0.01c0.041,0.002,0.088,0.064,0.113,0.115c0.771,1.328,1.541,2.66,2.313,3.992
	c0.025,0.049,0.063,0.09,0.092,0.139c0,0.01,0,0.02,0,0.023c-1.068,1.078-2.145,2.15-3.211,3.232
	c-0.045,0.049-0.074,0.133-0.074,0.193c-0.01,1.746-0.018,3.49-0.021,5.236"/>
<g>
	
		<line fill="none" stroke="#FFFFFF" stroke-width="1.5" stroke-miterlimit="10" x1="186.345" y1="26.906" x2="186.345" y2="29.279"/>
	
		<line fill="none" stroke="#FFFFFF" stroke-width="1.5" stroke-miterlimit="10" x1="184.283" y1="26.946" x2="191.804" y2="26.946"/>
	<g>
		<path fill="none" stroke="#FFFFFF" stroke-width="1.5" stroke-miterlimit="10" d="M195.275,29.05
			c-0.321,0.166-0.688,0.259-1.073,0.259c-1.304,0-2.355-1.058-2.355-2.358c0-1.3,1.059-2.357,2.355-2.357
			c0.049,0,0.098,0.001,0.145,0.005"/>
	</g>
	
		<line fill="none" stroke="#FFFFFF" stroke-width="1.5" stroke-miterlimit="10" x1="189.095" y1="26.906" x2="189.095" y2="30.626"/>
	<g>
		<path fill="none" stroke="#41C363" stroke-width="1.5" stroke-miterlimit="10" d="M194.202,24.593
			c1.299,0,2.354,1.057,2.354,2.357c0,0.939-0.554,1.753-1.353,2.132"/>
	</g>
</g>
<g>
	<path fill="none" stroke="#FFFFFF" stroke-width="1.5" stroke-miterlimit="10" d="M192.209,21.419
		c-0.881-1.964-2.854-3.331-5.147-3.331"/>
	<path fill="none" stroke="#FFFFFF" stroke-width="1.5" stroke-miterlimit="10" d="M192.708,24.652"/>
	<circle fill="none" stroke="#FFFFFF" stroke-width="1.5" stroke-miterlimit="10" cx="187.064" cy="9.66" r="5.491"/>
	<path fill="none" stroke="#41C363" stroke-width="1.5" stroke-miterlimit="10" d="M187.064,18.089
		c-3.115,0-5.646,2.526-5.646,5.646"/>
	<path fill="none" stroke="#FFFFFF" stroke-width="1.5" stroke-miterlimit="10" d="M181.419,23.736v6.217h1.908"/>
	<path fill="none" stroke="#FFFFFF" stroke-width="1.5" stroke-miterlimit="10" d="M192.708,24.652"/>
</g>
<g>
	
		<line fill="none" stroke="#FFFFFF" stroke-width="1.5" stroke-miterlimit="10" x1="186.345" y1="60.908" x2="186.345" y2="63.279"/>
	
		<line fill="none" stroke="#FFFFFF" stroke-width="1.5" stroke-miterlimit="10" x1="184.283" y1="60.947" x2="191.804" y2="60.947"/>
	<g>
		<path fill="none" stroke="#FFFFFF" stroke-width="1.5" stroke-miterlimit="10" d="M195.286,63.047
			c-0.326,0.168-0.693,0.264-1.084,0.264c-1.304,0-2.355-1.059-2.355-2.354c0-1.307,1.059-2.354,2.355-2.354
			c0.043,0,0.086,0.002,0.129,0.004"/>
	</g>
	
		<line fill="none" stroke="#FFFFFF" stroke-width="1.5" stroke-miterlimit="10" x1="189.095" y1="60.908" x2="189.095" y2="64.627"/>
	<g>
		<path fill="none" stroke="#000000" stroke-width="1.5" stroke-miterlimit="10" d="M194.202,58.596
			c1.299,0,2.354,1.053,2.354,2.355c0,0.936-0.554,1.752-1.353,2.131"/>
	</g>
</g>
<g>
	<path fill="none" stroke="#FFFFFF" stroke-width="1.5" stroke-miterlimit="10" d="M192.209,55.422
		c-0.881-1.965-2.854-3.332-5.147-3.332"/>
	<path fill="none" stroke="#FFFFFF" stroke-width="1.5" stroke-miterlimit="10" d="M192.708,58.654"/>
	<circle fill="none" stroke="#FFFFFF" stroke-width="1.5" stroke-miterlimit="10" cx="187.064" cy="43.661" r="5.493"/>
	<path fill="none" stroke="#000000" stroke-width="1.5" stroke-miterlimit="10" d="M187.064,52.09c-3.115,0-5.646,2.527-5.646,5.646
		"/>
	<path fill="none" stroke="#FFFFFF" stroke-width="1.5" stroke-miterlimit="10" d="M181.419,57.738v6.215h1.908"/>
	<path fill="none" stroke="#FFFFFF" stroke-width="1.5" stroke-miterlimit="10" d="M192.708,58.654"/>
</g>
<path fill="none" stroke="#41C363" stroke-width="1.5" stroke-miterlimit="10" d="M357.924,24.736v0.854
	c0,1.33-1.078,2.407-2.408,2.407l0,0c-1.328,0-2.404-1.077-2.404-2.407v-0.854"/>
<path fill="none" stroke="#FFFFFF" stroke-width="1.5" stroke-miterlimit="10" d="M347.338,24.684v-7.996
	c0-4.408,3.584-7.994,7.994-7.994c4.408,0,7.994,3.584,7.994,7.994v7.996C361.78,24.684,347.944,24.684,347.338,24.684z
	 M365.667,24.684c-1.551,0-20.064,0-20.668,0 M355.329,6.049V8.75"/>
<path fill="none" stroke="#000000" stroke-width="1.5" stroke-miterlimit="10" d="M357.924,58.736v0.854
	c0,1.33-1.078,2.407-2.408,2.407l0,0c-1.328,0-2.404-1.077-2.404-2.407v-0.854"/>
<path fill="none" stroke="#FFFFFF" stroke-width="1.5" stroke-miterlimit="10" d="M347.338,58.684v-7.996
	c0-4.408,3.584-7.994,7.994-7.994c4.408,0,7.994,3.584,7.994,7.994v7.996C361.78,58.684,347.944,58.684,347.338,58.684z
	 M365.667,58.684c-1.551,0-20.064,0-20.668,0 M355.329,40.049v2.701"/>
<line fill="none" stroke="#FFFFFF" stroke-width="1.5" stroke-linecap="round" stroke-linejoin="round" stroke-miterlimit="10" x1="225.058" y1="15.712" x2="225.058" y2="20.278"/>
<circle fill="#FFFFFF" cx="225.058" cy="24.012" r="1.094"/>
<polyline fill="none" stroke="#FFFFFF" stroke-width="1.5" stroke-linecap="round" stroke-linejoin="round" stroke-miterlimit="10" points="
	224.228,9.137 225.058,7.647 236.366,28 218.967,28 "/>
<polyline fill="none" stroke="#41C363" stroke-width="1.5" stroke-linecap="round" stroke-linejoin="round" stroke-miterlimit="10" points="
	219.144,28 213.75,28 225.058,7.647 "/>
<line fill="none" stroke="#FFFFFF" stroke-width="1.5" stroke-linecap="round" stroke-linejoin="round" stroke-miterlimit="10" x1="225.058" y1="48.712" x2="225.058" y2="53.277"/>
<circle fill="#FFFFFF" cx="225.058" cy="57.012" r="1.094"/>
<polyline fill="none" stroke="#FFFFFF" stroke-width="1.5" stroke-linecap="round" stroke-linejoin="round" stroke-miterlimit="10" points="
	224.228,42.137 225.058,40.646 236.366,61 218.967,61 "/>
<polyline fill="none" stroke="#000000" stroke-width="1.5" stroke-linecap="round" stroke-linejoin="round" stroke-miterlimit="10" points="
	219.144,61 213.75,61 225.058,40.646 "/>
<g>
	<path fill="none" stroke="#52BA64" stroke-width="1.5" stroke-miterlimit="10" d="M109.921,12.126"/>
	<path fill="none" stroke="#52BA64" stroke-width="1.5" stroke-miterlimit="10" d="M105.098,7.429"/>
</g>
<g>
	<line fill="none" stroke="#52BA64" stroke-width="1.5" stroke-miterlimit="10" x1="95.293" y1="18.817" x2="100.856" y2="24.236"/>
	<line fill="none" stroke="#FFFFFF" stroke-width="1.5" stroke-miterlimit="10" x1="105.731" y1="6.653" x2="110.319" y2="11.122"/>
	<line fill="none" stroke="#FFFFFF" stroke-width="1.5" stroke-miterlimit="10" x1="97.287" y1="17.434" x2="103.753" y2="23.645"/>
</g>
<g>
	<polyline fill="none" stroke="#52BA64" stroke-width="1.5" stroke-miterlimit="10" points="109.658,12.998 108.653,12.998 
		108.653,17.884 110.72,17.884 	"/>
	<polyline fill="none" stroke="#FFFFFF" stroke-width="1.5" stroke-miterlimit="10" points="112.987,12.998 113.994,12.998 
		113.994,17.884 111.924,17.884 	"/>
</g>
<g>
	<path fill="none" stroke="#FFFFFF" stroke-width="1.5" stroke-miterlimit="10" d="M95.343,13.487l7.062-7.061"/>
</g>
<g>
	<polyline fill="none" stroke="#52BA64" stroke-width="1.5" stroke-miterlimit="10" points="100.944,28.436 100.944,23.712 
		104.761,23.712 	"/>
</g>
<g>
	<path fill="none" stroke="#FFFFFF" stroke-width="1.5" stroke-miterlimit="10" d="M105.698,5.975c0,0.891-0.723,1.613-1.612,1.613
		c-0.891,0-1.614-0.722-1.614-1.613s0.723-1.613,1.614-1.613C104.975,4.362,105.698,5.084,105.698,5.975z M96.415,28.749h16.692
		 M104.761,23.712h3.892v4.723"/>
	<circle fill="none" stroke="#52BA64" stroke-width="1.5" stroke-miterlimit="10" cx="94.766" cy="15.882" r="2.893"/>
</g>
<path fill="none" stroke="#52BA64" stroke-width="1.5" stroke-miterlimit="10" d="M112.598,12.547c0,0.05-0.003,0.099-0.009,0.146
	c-0.072,0.658-0.63,1.168-1.307,1.168c-0.672,0-1.227-0.506-1.305-1.158c-0.005-0.051-0.008-0.104-0.008-0.156
	c0-0.727,0.588-1.315,1.313-1.315C112.01,11.232,112.598,11.821,112.598,12.547z"/>
<g>
	<path fill="none" stroke="#52BA64" stroke-width="1.5" stroke-miterlimit="10" d="M109.921,47.127"/>
	<path fill="none" stroke="#52BA64" stroke-width="1.5" stroke-miterlimit="10" d="M105.098,42.43"/>
</g>
<g>
	<line fill="none" stroke="#000000" stroke-width="1.5" stroke-miterlimit="10" x1="95.293" y1="53.816" x2="100.856" y2="59.236"/>
	
		<line fill="none" stroke="#FFFFFF" stroke-width="1.5" stroke-miterlimit="10" x1="105.731" y1="41.652" x2="110.319" y2="46.121"/>
	<line fill="none" stroke="#FFFFFF" stroke-width="1.5" stroke-miterlimit="10" x1="97.287" y1="52.434" x2="103.753" y2="58.645"/>
</g>
<g>
	<polyline fill="none" stroke="#000000" stroke-width="1.5" stroke-miterlimit="10" points="109.658,47.998 108.653,47.998 
		108.653,52.884 110.72,52.884 	"/>
	<polyline fill="none" stroke="#FFFFFF" stroke-width="1.5" stroke-miterlimit="10" points="112.987,47.998 113.994,47.998 
		113.994,52.884 111.924,52.884 	"/>
</g>
<g>
	<path fill="none" stroke="#FFFFFF" stroke-width="1.5" stroke-miterlimit="10" d="M95.343,48.486l7.062-7.062"/>
</g>
<g>
	<polyline fill="none" stroke="#000000" stroke-width="1.5" stroke-miterlimit="10" points="100.944,63.436 100.944,58.713 
		104.761,58.713 	"/>
</g>
<g>
	<path fill="none" stroke="#FFFFFF" stroke-width="1.5" stroke-miterlimit="10" d="M105.698,40.975c0,0.892-0.723,1.613-1.612,1.613
		c-0.891,0-1.614-0.723-1.614-1.613c0-0.89,0.723-1.611,1.614-1.611C104.975,39.361,105.698,40.084,105.698,40.975z M96.415,63.748
		h16.692 M104.761,58.713h3.892v4.723"/>
	<circle fill="none" stroke="#000000" stroke-width="1.5" stroke-miterlimit="10" cx="94.766" cy="50.883" r="2.893"/>
</g>
<path fill="none" stroke="#000000" stroke-width="1.5" stroke-miterlimit="10" d="M112.598,47.547c0,0.051-0.003,0.1-0.009,0.146
	c-0.072,0.658-0.63,1.168-1.307,1.168c-0.672,0-1.227-0.506-1.305-1.158c-0.005-0.051-0.008-0.104-0.008-0.156
	c0-0.727,0.588-1.314,1.313-1.314C112.01,46.232,112.598,46.82,112.598,47.547z"/>
<g>
	<path fill="none" stroke="#52BA64" stroke-width="1.5" stroke-miterlimit="10" d="M152.039,7.312"/>
	<path fill="none" stroke="#52BA64" stroke-width="1.5" stroke-miterlimit="10" d="M147.045,11.828"/>
</g>
<g>
	
		<line fill="none" stroke="#52BA64" stroke-width="1.5" stroke-miterlimit="10" x1="143.293" y1="18.817" x2="148.856" y2="24.236"/>
	
		<line fill="none" stroke="#FFFFFF" stroke-width="1.5" stroke-miterlimit="10" x1="145.287" y1="17.434" x2="151.753" y2="23.645"/>
</g>
<g>
	<polyline fill="none" stroke="#52BA64" stroke-width="1.5" stroke-miterlimit="10" points="152.892,7.63 152.828,8.633 
		155.708,8.815 155.839,6.752 	"/>
	<polyline fill="none" stroke="#FFFFFF" stroke-width="1.5" stroke-miterlimit="10" points="153.103,4.307 153.167,3.303 
		156.046,3.485 155.915,5.551 	"/>
</g>
<g>
	<path fill="none" stroke="#FFFFFF" stroke-width="1.5" stroke-miterlimit="10" d="M143.343,13.487l7.062-7.061"/>
</g>
<g>
	<polyline fill="none" stroke="#52BA64" stroke-width="1.5" stroke-miterlimit="10" points="148.944,28.436 148.944,23.712 
		152.761,23.712 	"/>
</g>
<g>
	<path fill="none" stroke="#FFFFFF" stroke-width="1.5" stroke-miterlimit="10" d="M153.698,5.975c0,0.891-0.723,1.613-1.612,1.613
		c-0.891,0-1.614-0.722-1.614-1.613s0.723-1.613,1.614-1.613C152.975,4.362,153.698,5.084,153.698,5.975z M144.415,28.749h16.692
		 M152.761,23.712h3.892v4.723"/>
	<circle fill="none" stroke="#52BA64" stroke-width="1.5" stroke-miterlimit="10" cx="142.766" cy="15.882" r="2.893"/>
</g>
<path fill="none" stroke="#52BA64" stroke-width="0.987" stroke-miterlimit="10" d="M134.983,13.501
	c0.313-1.253,0.947-2.409,1.913-3.343c0.965-0.932,2.142-1.527,3.405-1.799"/>
<path fill="none" stroke="#52BA64" stroke-width="0.987" stroke-miterlimit="10" d="M137.165,14.126
	c0.229-0.868,0.676-1.672,1.35-2.323c0.673-0.651,1.49-1.071,2.366-1.269"/>
<g>
	<path fill="none" stroke="#52BA64" stroke-width="1.5" stroke-miterlimit="10" d="M152.039,42.313"/>
	<path fill="none" stroke="#52BA64" stroke-width="1.5" stroke-miterlimit="10" d="M147.045,46.828"/>
</g>
<g>
	
		<line fill="none" stroke="#000000" stroke-width="1.5" stroke-miterlimit="10" x1="143.293" y1="53.816" x2="148.856" y2="59.236"/>
	
		<line fill="none" stroke="#FFFFFF" stroke-width="1.5" stroke-miterlimit="10" x1="145.287" y1="52.434" x2="151.753" y2="58.645"/>
</g>
<g>
	<polyline fill="none" stroke="#000000" stroke-width="1.5" stroke-miterlimit="10" points="152.892,42.63 152.828,43.633 
		155.708,43.814 155.839,41.752 	"/>
	<polyline fill="none" stroke="#FFFFFF" stroke-width="1.5" stroke-miterlimit="10" points="153.103,39.307 153.167,38.303 
		156.046,38.484 155.915,40.551 	"/>
</g>
<g>
	<path fill="none" stroke="#FFFFFF" stroke-width="1.5" stroke-miterlimit="10" d="M143.343,48.486l7.062-7.062"/>
</g>
<g>
	<polyline fill="none" stroke="#000000" stroke-width="1.5" stroke-miterlimit="10" points="148.944,63.436 148.944,58.713 
		152.761,58.713 	"/>
</g>
<g>
	<path fill="none" stroke="#FFFFFF" stroke-width="1.5" stroke-miterlimit="10" d="M153.698,40.975c0,0.892-0.723,1.613-1.612,1.613
		c-0.891,0-1.614-0.723-1.614-1.613c0-0.89,0.723-1.611,1.614-1.611C152.975,39.361,153.698,40.084,153.698,40.975z M144.415,63.748
		h16.692 M152.761,58.713h3.892v4.723"/>
	<circle fill="none" stroke="#000000" stroke-width="1.5" stroke-miterlimit="10" cx="142.766" cy="50.883" r="2.893"/>
</g>
<path fill="none" stroke="#000000" stroke-width="0.987" stroke-miterlimit="10" d="M134.983,48.502
	c0.313-1.254,0.947-2.41,1.913-3.344c0.965-0.932,2.142-1.527,3.405-1.799"/>
<path fill="none" stroke="#000000" stroke-width="0.987" stroke-miterlimit="10" d="M137.165,49.126
	c0.229-0.868,0.676-1.672,1.35-2.323c0.673-0.65,1.49-1.07,2.366-1.27"/>
<path fill="none" stroke="#41C363" stroke-width="1.5" stroke-miterlimit="10" d="M302,8.357l12.064,10.979
	c0.188,0.118,0.402,0.176,0.617,0.176s0.428-0.058,0.617-0.176l11.324-10.979"/>
<g>
	<g>
		<path fill="none" stroke="#FFFFFF" stroke-width="1.5" stroke-miterlimit="10" d="M325.713,8.27H302.92
			c-0.504,0-0.912,0.402-0.912,0.898v17.454c0,0.495,0.408,0.9,0.912,0.9h22.793c0.502,0,0.91-0.406,0.91-0.9V9.168
			C326.625,8.672,326.215,8.27,325.713,8.27z"/>
	</g>
</g>
<path fill="none" stroke="#000000" stroke-width="1.5" stroke-miterlimit="10" d="M302,40.357l12.064,10.979
	c0.188,0.118,0.402,0.178,0.617,0.178s0.428-0.06,0.617-0.178l11.324-10.979"/>
<g>
	<g>
		<path fill="none" stroke="#FFFFFF" stroke-width="1.5" stroke-miterlimit="10" d="M325.713,40.27H302.92
			c-0.504,0-0.912,0.402-0.912,0.898v17.454c0,0.495,0.408,0.899,0.912,0.899h22.793c0.502,0,0.91-0.404,0.91-0.899V41.168
			C326.625,40.672,326.215,40.27,325.713,40.27z"/>
	</g>
</g>
<path fill="none" stroke="#FFFFFF" stroke-width="1.5" stroke-miterlimit="10" d="M395.443,24.514c0-3.401-2.757-6.159-6.157-6.16"
	/>
<circle fill="none" stroke="#FFFFFF" stroke-width="1.5" stroke-miterlimit="10" cx="389.288" cy="9.158" r="6.158"/>
<path fill="none" stroke="#41C363" stroke-width="1.5" stroke-miterlimit="10" d="M389.288,18.354c-3.402,0-6.16,2.758-6.16,6.16"/>
<polyline fill="none" stroke="#FFFFFF" stroke-width="1.5" stroke-miterlimit="10" points="383.127,24.514 383.127,30.944 
	393.211,30.944 "/>
<polyline fill="none" stroke="#FFFFFF" stroke-width="1.5" stroke-miterlimit="10" points="385.361,30.943 395.443,30.943 
	395.443,24.513 "/>
<path fill="none" stroke="#000000" stroke-width="1.5" stroke-miterlimit="10" d="M395.443,58.514c0-3.397-2.757-6.158-6.157-6.16"
	/>
<circle fill="none" stroke="#000000" stroke-width="1.5" stroke-miterlimit="10" cx="389.288" cy="43.158" r="6.158"/>
<path fill="none" stroke="#FFFFFF" stroke-width="1.5" stroke-miterlimit="10" d="M389.288,52.354
	c-3.402,0.002-6.16,2.763-6.16,6.16"/>
<polyline fill="none" stroke="#000000" stroke-width="1.5" stroke-miterlimit="10" points="383.127,58.514 383.127,64.943 
	393.211,64.943 "/>
<polyline fill="none" stroke="#000000" stroke-width="1.5" stroke-miterlimit="10" points="385.361,64.943 395.443,64.943 
	395.443,58.514 "/>
<g>
	<path fill="none" stroke="#FFFFFF" stroke-width="1.5" stroke-miterlimit="10" d="M426.675,29.868c-0.398,0-0.809,0-1.207,0
		c-1.688,0-5.182,0.002-6.867-0.001c-1.324-0.002-2.354-0.778-2.688-2.033c-0.063-0.249-0.096-0.516-0.096-0.775
		c-0.012-3.135-0.006-6.268-0.006-9.398c0-3.121-0.006-6.245,0-9.367c0.004-1.64,1.166-2.823,2.814-2.823
		c5.479-0.004,10.965,0.004,16.457-0.007c1.604-0.002,2.814,1.287,2.813,2.745c-0.02,2.708-0.002,8.127-0.008,10.836"/>
</g>
<g>
	<path fill="none" stroke="#FFFFFF" stroke-width="1.5" stroke-miterlimit="10" d="M421.298,10.652
		c-0.102,0-0.188,0.083-0.188,0.185v2.382c0,0.103,0.084,0.185,0.188,0.185h10.492c0.104,0,0.186-0.079,0.186-0.185v-2.382
		c0-0.104-0.082-0.185-0.186-0.185H421.298z"/>
</g>
<g>
	<g>
		<path fill="none" stroke="#41C363" stroke-width="1.5" stroke-miterlimit="10" d="M429.828,19.577
			c5.469,0.688,9.766,5.19,10.424,10.406"/>
	</g>
	<g>
		<path fill="none" stroke="#FFFFFF" stroke-width="1.5" stroke-miterlimit="10" d="M429.818,23.414
			c3.535,0.673,6.041,3.593,6.572,6.571"/>
	</g>
	<g>
		<path fill="#FFFFFF" d="M431.029,27.814c0.611,0.002,1.096,0.498,1.088,1.121c-0.008,0.599-0.494,1.073-1.109,1.071
			c-0.613-0.004-1.09-0.496-1.088-1.123C429.931,28.29,430.423,27.812,431.029,27.814z"/>
	</g>
</g>
<g>
	<path fill="none" stroke="#FFFFFF" stroke-width="1.5" stroke-miterlimit="10" d="M426.369,17.437h-5.988"/>
</g>
<g>
	<path fill="none" stroke="#FFFFFF" stroke-width="1.5" stroke-miterlimit="10" d="M426.369,21.259h-5.988"/>
</g>
<g>
	<path fill="none" stroke="#FFFFFF" stroke-width="1.5" stroke-miterlimit="10" d="M426.369,25.082h-5.988"/>
</g>
<g>
	<path fill="none" stroke="#41C363" stroke-width="1.5" stroke-miterlimit="10" d="M426.675,29.868c-0.398,0-0.809,0-1.207,0
		c-1.688,0-5.182,0.002-6.867-0.001c-1.324-0.002-2.354-0.778-2.688-2.033c-0.063-0.249-0.096-0.516-0.096-0.775
		c-0.012-3.135-0.006-6.268-0.006-9.398"/>
</g>
<g>
	<path fill="none" stroke="#FFFFFF" stroke-width="1.5" stroke-miterlimit="10" d="M426.675,62.87c-0.398,0-0.809,0-1.207,0
		c-1.688,0-5.182,0.002-6.867-0.001c-1.324-0.002-2.354-0.778-2.688-2.033c-0.063-0.249-0.096-0.516-0.096-0.775
		c-0.012-3.135-0.006-6.268-0.006-9.396c0-3.121-0.006-6.244,0-9.367c0.004-1.642,1.166-2.819,2.814-2.819
		c5.479-0.006,10.965,0.004,16.457-0.011c1.604-0.002,2.814,1.287,2.813,2.745c-0.02,2.708-0.002,8.128-0.008,10.836"/>
</g>
<g>
	<path fill="none" stroke="#FFFFFF" stroke-width="1.5" stroke-miterlimit="10" d="M421.298,43.654
		c-0.102,0-0.188,0.082-0.188,0.185v2.382c0,0.104,0.084,0.186,0.188,0.186h10.492c0.104,0,0.186-0.07,0.186-0.186v-2.382
		c0-0.104-0.082-0.185-0.186-0.185H421.298L421.298,43.654z"/>
</g>
<g>
	<g>
		<path fill="none" stroke="#000000" stroke-width="1.5" stroke-miterlimit="10" d="M429.828,52.579
			c5.469,0.688,9.766,5.19,10.424,10.405"/>
	</g>
	<g>
		<path fill="none" stroke="#FFFFFF" stroke-width="1.5" stroke-miterlimit="10" d="M429.818,56.416
			c3.535,0.673,6.041,3.593,6.572,6.57"/>
	</g>
	<g>
		<path fill="#FFFFFF" d="M431.029,60.816c0.611,0.002,1.096,0.498,1.088,1.121c-0.008,0.599-0.494,1.063-1.109,1.063
			c-0.613-0.004-1.09-0.496-1.088-1.123C429.931,61.292,430.423,60.814,431.029,60.816z"/>
	</g>
</g>
<g>
	<path fill="none" stroke="#FFFFFF" stroke-width="1.5" stroke-miterlimit="10" d="M426.369,50.439h-5.988"/>
</g>
<g>
	<path fill="none" stroke="#FFFFFF" stroke-width="1.5" stroke-miterlimit="10" d="M426.369,54.261h-5.988"/>
</g>
<g>
	<path fill="none" stroke="#FFFFFF" stroke-width="1.5" stroke-miterlimit="10" d="M426.369,58.084h-5.988"/>
</g>
<g>
	<path fill="none" stroke="#000000" stroke-width="1.5" stroke-miterlimit="10" d="M426.675,62.87c-0.398,0-0.809,0-1.207,0
		c-1.688,0-5.182,0.002-6.867-0.001c-1.324-0.002-2.354-0.778-2.688-2.033c-0.063-0.249-0.096-0.516-0.096-0.775
		c-0.012-3.135-0.006-6.268-0.006-9.396"/>
</g>
<polyline fill="none" stroke="#41C363" stroke-width="1.5" stroke-linecap="round" stroke-linejoin="round" stroke-miterlimit="10" points="
	462.717,20.111 462.075,20.111 462.075,13.721 466.014,13.721 "/>
<polyline fill="none" stroke="#FFFFFF" stroke-width="1.5" stroke-linecap="round" stroke-linejoin="round" stroke-miterlimit="10" points="
	467.377,13.721 468.461,13.721 468.461,20.111 465.27,20.111 "/>
<line fill="none" stroke="#41C363" stroke-width="1.5" stroke-linecap="round" stroke-linejoin="round" stroke-miterlimit="10" x1="477.458" y1="22.382" x2="472.401" y2="22.382"/>
<line fill="none" stroke="#FFFFFF" stroke-width="1.5" stroke-linecap="round" stroke-linejoin="round" stroke-miterlimit="10" x1="472.401" y1="11.451" x2="477.458" y2="11.451"/>
<line fill="none" stroke="#FFFFFF" stroke-width="1.5" stroke-linecap="round" stroke-linejoin="round" stroke-miterlimit="10" x1="472.401" y1="16.917" x2="477.458" y2="16.917"/>
<line fill="none" stroke="#FFFFFF" stroke-width="1.5" stroke-linecap="round" stroke-linejoin="round" stroke-miterlimit="10" x1="458.133" y1="22.382" x2="453.079" y2="22.382"/>
<line fill="none" stroke="#FFFFFF" stroke-width="1.5" stroke-linecap="round" stroke-linejoin="round" stroke-miterlimit="10" x1="453.079" y1="11.451" x2="458.133" y2="11.451"/>
<line fill="none" stroke="#FFFFFF" stroke-width="1.5" stroke-linecap="round" stroke-linejoin="round" stroke-miterlimit="10" x1="453.079" y1="16.917" x2="458.133" y2="16.917"/>
<line fill="none" stroke="#FFFFFF" stroke-width="1.5" stroke-linecap="round" stroke-linejoin="round" stroke-miterlimit="10" x1="470.733" y1="4.726" x2="470.733" y2="9.783"/>
<line fill="none" stroke="#FFFFFF" stroke-width="1.5" stroke-linecap="round" stroke-linejoin="round" stroke-miterlimit="10" x1="459.805" y1="9.783" x2="459.805" y2="4.726"/>
<line fill="none" stroke="#FFFFFF" stroke-width="1.5" stroke-linecap="round" stroke-linejoin="round" stroke-miterlimit="10" x1="465.27" y1="9.783" x2="465.27" y2="4.726"/>
<line fill="none" stroke="#FFFFFF" stroke-width="1.5" stroke-linecap="round" stroke-linejoin="round" stroke-miterlimit="10" x1="470.733" y1="24.05" x2="470.733" y2="29.107"/>
<line fill="none" stroke="#FFFFFF" stroke-width="1.5" stroke-linecap="round" stroke-linejoin="round" stroke-miterlimit="10" x1="459.805" y1="29.107" x2="459.805" y2="24.05"/>
<line fill="none" stroke="#FFFFFF" stroke-width="1.5" stroke-linecap="round" stroke-linejoin="round" stroke-miterlimit="10" x1="465.27" y1="29.107" x2="465.27" y2="24.05"/>
<polyline fill="none" stroke="#FFFFFF" stroke-width="1.5" stroke-linecap="round" stroke-linejoin="round" stroke-miterlimit="10" points="
	471.497,25.497 456.688,25.497 456.688,8.336 473.85,8.336 473.85,17.531 "/>
<polyline fill="none" stroke="#41C363" stroke-width="1.5" stroke-linecap="square" stroke-linejoin="round" stroke-miterlimit="10" points="
	473.85,18.323 473.85,25.497 472.186,25.497 "/>
<polyline fill="none" stroke="#000000" stroke-width="1.5" stroke-linecap="round" stroke-linejoin="round" stroke-miterlimit="10" points="
	462.717,54.111 462.075,54.111 462.075,47.721 466.014,47.721 "/>
<polyline fill="none" stroke="#FFFFFF" stroke-width="1.5" stroke-linecap="round" stroke-linejoin="round" stroke-miterlimit="10" points="
	467.377,47.721 468.461,47.721 468.461,54.111 465.27,54.111 "/>
<line fill="none" stroke="#000000" stroke-width="1.5" stroke-linecap="round" stroke-linejoin="round" stroke-miterlimit="10" x1="477.458" y1="56.383" x2="472.401" y2="56.383"/>
<line fill="none" stroke="#FFFFFF" stroke-width="1.5" stroke-linecap="round" stroke-linejoin="round" stroke-miterlimit="10" x1="472.401" y1="45.451" x2="477.458" y2="45.451"/>
<line fill="none" stroke="#FFFFFF" stroke-width="1.5" stroke-linecap="round" stroke-linejoin="round" stroke-miterlimit="10" x1="472.401" y1="50.918" x2="477.458" y2="50.918"/>
<line fill="none" stroke="#FFFFFF" stroke-width="1.5" stroke-linecap="round" stroke-linejoin="round" stroke-miterlimit="10" x1="458.133" y1="56.383" x2="453.079" y2="56.383"/>
<line fill="none" stroke="#FFFFFF" stroke-width="1.5" stroke-linecap="round" stroke-linejoin="round" stroke-miterlimit="10" x1="453.079" y1="45.451" x2="458.133" y2="45.451"/>
<line fill="none" stroke="#FFFFFF" stroke-width="1.5" stroke-linecap="round" stroke-linejoin="round" stroke-miterlimit="10" x1="453.079" y1="50.918" x2="458.133" y2="50.918"/>
<line fill="none" stroke="#FFFFFF" stroke-width="1.5" stroke-linecap="round" stroke-linejoin="round" stroke-miterlimit="10" x1="470.733" y1="38.727" x2="470.733" y2="43.783"/>
<line fill="none" stroke="#FFFFFF" stroke-width="1.5" stroke-linecap="round" stroke-linejoin="round" stroke-miterlimit="10" x1="459.805" y1="43.783" x2="459.805" y2="38.727"/>
<line fill="none" stroke="#FFFFFF" stroke-width="1.5" stroke-linecap="round" stroke-linejoin="round" stroke-miterlimit="10" x1="465.27" y1="43.783" x2="465.27" y2="38.727"/>
<line fill="none" stroke="#FFFFFF" stroke-width="1.5" stroke-linecap="round" stroke-linejoin="round" stroke-miterlimit="10" x1="470.733" y1="58.051" x2="470.733" y2="63.107"/>
<line fill="none" stroke="#FFFFFF" stroke-width="1.5" stroke-linecap="round" stroke-linejoin="round" stroke-miterlimit="10" x1="459.805" y1="63.107" x2="459.805" y2="58.051"/>
<line fill="none" stroke="#FFFFFF" stroke-width="1.5" stroke-linecap="round" stroke-linejoin="round" stroke-miterlimit="10" x1="465.27" y1="63.107" x2="465.27" y2="58.051"/>
<polyline fill="none" stroke="#FFFFFF" stroke-width="1.5" stroke-linecap="round" stroke-linejoin="round" stroke-miterlimit="10" points="
	471.497,59.498 456.688,59.498 456.688,42.336 473.85,42.336 473.85,51.531 "/>
<polyline fill="none" stroke="#000000" stroke-width="1.5" stroke-linecap="square" stroke-linejoin="round" stroke-miterlimit="10" points="
	473.85,52.322 473.85,59.498 472.186,59.498 "/>
</svg>
